# xmcd
#
# Track frame offsets:
#	150
#	8018
#	16741
#	23034
#	30459
#	36339
#	42699
#	49104
#	55307
#	61945
#	68800
#	75843
#	80913
#	85916
#	94279
#	98284
#	104224
#	112347
#	117297
#	122937
#	128427
#	134727
#	142902
#	150867
#	157137
#	163887
#
# Disc length: 2284 seconds
#
# Revision: 1
# Processed by: cddbd v1.5.2PL0 Copyright (c) Steve Scherf et al.
# Submitted via: audiograbber 1.83.01
#
DISCID=5c08ea1a
DTITLE=Dewayne Wear - Hoe Down! Vol 3
DYEAR=1900
DGENRE=Country
TTITLE0=Rubber Dolly
TTITLE1=Wednesday Night Waltz
TTITLE2=Criple Creek
TTITLE3=8th Of January
TTITLE4=Chicken Reel
TTITLE5=Soldier's Joy
TTITLE6=Uncle Joe
TTITLE7=Boil Them Cabbage Down
TTITLE8=Wagoner
TTITLE9=Old Joe Clark
TTITLE10=Ragtime Annie
TTITLE11=Arkansas Traveler
TTITLE12=Devil's Dream
TTITLE13=Orange Blossom Special
TTITLE14=Turkey In The Straw
TTITLE15=Flop Eared Mule
TTITLE16=Carrol County Blues
TTITLE17=Fire On The Mountain
TTITLE18=Mississippi Sawyer
TTITLE19=Fisher's Hornpipe
TTITLE20=Bill Cheatam
TTITLE21=Cindy
TTITLE22=Stoney Point
TTITLE23=Gray Eagle
TTITLE24=Old Dan Tucker
TTITLE25=Ida Red
EXTD=I created this CD from one of my LP's
EXTT0=
EXTT1=
EXTT2=
EXTT3=
EXTT4=
EXTT5=
EXTT6=
EXTT7=
EXTT8=
EXTT9=
EXTT10=
EXTT11=
EXTT12=
EXTT13=
EXTT14=
EXTT15=
EXTT16=
EXTT17=
EXTT18=
EXTT19=
EXTT20=
EXTT21=
EXTT22=
EXTT23=
EXTT24=
EXTT25=
PLAYORDER=
